<svg width="21" height="21" viewBox="0 0 21 21" fill="none" xmlns="http://www.w3.org/2000/svg">
<path d="M19.1514 5.77337C19.1479 5.77337 19.1446 5.77337 19.1411 5.77337H14.93V1.55198C14.9357 0.70059 14.2502 0.00569059 13.3988 0C13.3953 0 13.3918 0 13.3884 0H7.30465C6.45326 0 5.76302 0.690243 5.76302 1.54163V5.76302H1.55198C0.70059 5.75733 0.00569059 6.44279 0 7.29418C0 7.30116 0 7.30802 0 7.315V13.3884C0 14.2398 0.690243 14.93 1.54163 14.93H5.76302V19.1411C5.75733 19.9925 6.44292 20.6874 7.29431 20.6931C7.2978 20.6931 7.30129 20.6931 7.30465 20.6931H13.3781C14.2295 20.6931 14.9197 20.0028 14.9197 19.1514V14.93H19.1411C19.9925 14.9357 20.6874 14.2502 20.6931 13.3988C20.6931 13.3953 20.6931 13.3918 20.6931 13.3884V7.315C20.6931 6.46361 20.003 5.77337 19.1514 5.77337ZM18.6238 12.8607H13.8954C13.324 12.8607 12.8607 13.324 12.8607 13.8954V18.6238H7.83233V13.8954C7.83233 13.324 7.36906 12.8607 6.79767 12.8607H2.06931V7.84267H6.79767C7.36906 7.84267 7.83233 7.37941 7.83233 6.80802V2.06931H12.8504V6.79767C12.8504 7.36906 13.3137 7.83233 13.885 7.83233H18.6238V12.8607Z" fill="white"/>
</svg>
