<svg width="189" height="48" viewBox="0 0 189 48" fill="none" xmlns="http://www.w3.org/2000/svg">
<path d="M27.9582 0.0195068C35.044 0.0195068 42.162 0.0195068 49.2478 0.0195068C49.6665 0.0195068 50.1174 0.0514929 50.5361 0.0195068C53.0483 -0.236381 55.3673 2.06661 55.625 4.49755C55.6572 4.81741 55.6894 5.16926 55.6894 5.48912C55.6894 17.8357 55.6894 30.1503 55.6894 42.4969C55.6894 43.5205 55.5283 44.5121 55.013 45.3757C54.0468 47.007 52.694 48.0305 50.7293 47.9985C50.3106 47.9985 49.8597 47.9985 49.441 47.9985C35.1406 47.9985 20.8724 47.9985 6.57196 47.9985C6.05663 47.9985 5.50909 47.9666 4.99376 47.9985C2.96465 48.0625 0.710078 46.0154 0.452413 43.7444C0.420205 43.3606 0.420205 42.9767 0.420205 42.5929C0.420205 30.2143 0.420205 17.8357 0.420205 5.45713C0.420205 4.94535 0.387997 4.40159 0.516829 3.88982C0.967743 1.97065 2.25607 0.755186 4.09193 0.147451C4.47843 0.019507 4.96155 0.051493 5.38026 0.051493C7.24833 0.051493 9.1164 0.051493 10.9845 0.051493C16.6531 0.019507 22.3217 0.0195068 27.9582 0.0195068ZM28.1514 15.3088C22.8693 15.3088 17.5871 15.3088 12.3372 15.3088C11.9185 15.3088 11.4676 15.3088 11.0489 15.3408C10.7912 15.3728 10.6302 15.5327 10.598 15.8206C10.5658 16.0445 10.5658 16.2684 10.5658 16.5243C10.5658 23.6572 10.5658 30.822 10.5658 37.9549C10.5658 38.3707 10.6302 38.8186 10.6946 39.2344C10.8234 39.7461 11.1455 40.034 11.5964 40.2899C12.0796 40.5458 12.6271 40.5138 13.1424 40.5138C23.0625 40.5138 33.0149 40.5138 42.935 40.5138C43.257 40.5138 43.6113 40.5138 43.9334 40.4498C44.7064 40.3219 45.2217 39.9061 45.3828 39.0744C45.4794 38.5947 45.4794 38.1149 45.4794 37.6671C45.4794 30.7261 45.4794 23.7531 45.4794 16.8122C45.4794 16.4923 45.4794 16.1405 45.4472 15.8206C45.415 15.5647 45.2539 15.3728 44.9963 15.3728C44.5776 15.3408 44.1267 15.3408 43.708 15.3408C38.5224 15.3088 33.3369 15.3088 28.1514 15.3088ZM28.0226 14.1253C33.2403 14.1253 38.4902 14.1253 43.708 14.1253C44.1267 14.1253 44.5776 14.1253 44.9963 14.0934C45.2539 14.0614 45.4794 13.9334 45.4794 13.6456C45.4794 12.2062 45.4794 10.7988 45.4794 9.35943C45.4794 9.16751 45.3828 9.00758 45.3184 8.81566C45.1573 8.11197 44.6742 7.76012 43.9978 7.69615C43.5147 7.63218 43.0316 7.66417 42.5485 7.66417C32.8538 7.66417 23.1592 7.66417 13.4967 7.66417C13.1746 7.66417 12.8203 7.66417 12.4983 7.66417C11.2421 7.72814 10.6946 8.23991 10.5658 9.48737C10.5336 9.71127 10.5658 9.96716 10.5658 10.1911C10.5658 10.9587 10.5658 11.7264 10.5658 12.4621C10.5658 14.1253 10.4369 14.0934 12.2084 14.0934C17.4583 14.1253 22.7404 14.1253 28.0226 14.1253Z" fill="white"/>
<path d="M73.6612 11.0869C75.6259 10.959 77.4618 11.4388 79.1688 12.3664C79.4909 12.5583 79.813 12.7502 80.1351 12.9741C80.8437 13.4219 81.0047 14.0616 80.9081 14.8293C80.8115 15.597 80.2961 15.9808 79.652 16.2367C79.2655 16.3966 78.9112 16.3966 78.5247 16.2367C78.0738 16.0448 77.6229 15.8848 77.2364 15.6289C75.787 14.7013 74.2088 14.5414 72.534 14.6374C72.0508 14.6694 71.5999 14.7973 71.1812 15.0532C70.2472 15.597 69.7963 16.6205 70.1828 17.6121C70.4404 18.3797 71.0846 18.8275 71.8254 19.1154C72.3407 19.3393 72.9205 19.4673 73.468 19.6272C74.8852 20.043 76.3345 20.4268 77.7195 20.9066C79.1366 21.4184 80.3605 22.25 81.1658 23.5615C81.52 24.1372 81.7455 24.7769 81.7455 25.4486C81.7455 26.4082 81.8421 27.3358 81.52 28.2634C80.747 30.5344 79.04 31.8139 76.7854 32.4216C74.2732 33.0613 71.8576 32.7095 69.442 31.8459C68.2503 31.43 67.2196 30.7263 66.189 30.0546C65.4482 29.5748 65.2549 28.5193 65.6736 27.7516C66.1245 26.92 66.962 26.5362 67.8316 26.7601C68.2181 26.856 68.5079 27.0799 68.83 27.3038C70.0217 28.1994 71.3745 28.8392 72.856 29.0631C73.9511 29.223 75.0462 29.255 76.1091 28.8712C77.1397 28.4873 77.7195 27.6557 77.7517 26.6001C77.7517 25.6406 77.3008 24.9369 76.4312 24.617C75.4971 24.2652 74.5309 23.9133 73.5968 23.6254C72.6306 23.3376 71.6643 23.1137 70.6981 22.8578C69.442 22.4739 68.3469 21.8342 67.4129 20.8746C66.35 19.7551 66.0923 18.3797 66.1245 16.9084C66.189 13.5179 69.2487 11.2469 72.0831 11.0229C72.5984 11.0549 73.1137 11.0869 73.6612 11.0869Z" fill="white"/>
<path d="M132.442 11.0228C133.215 11.0548 133.988 11.0548 134.729 11.1507C136.436 11.3427 137.917 12.1423 139.302 13.1019C139.624 13.3258 139.85 13.6456 140.043 13.9655C140.526 14.7332 140.429 15.5008 139.817 16.2045C139.238 16.8442 138.368 17.0362 137.595 16.6203C137.048 16.3325 136.532 15.9806 135.985 15.6608C133.956 14.4133 131.798 14.3174 129.64 15.149C127.965 15.8207 126.709 17.1001 126.065 18.8274C125.388 20.6186 125.324 22.4098 125.839 24.265C126.483 26.632 129.285 29.5107 132.957 29.1269C134.406 28.9669 135.63 28.4872 136.79 27.6555C137.048 27.4636 137.305 27.2397 137.595 27.0478C138.465 26.4401 139.27 26.568 140.011 27.3996C140.623 28.0713 140.655 28.9989 140.075 29.7346C139.946 29.8945 139.817 30.0225 139.689 30.1504C137.788 31.7177 135.663 32.7093 133.15 32.7733C132.764 32.7733 132.377 32.7733 131.991 32.7733C129.189 32.8692 126.838 31.8137 124.808 29.9905C123.005 28.3912 122.006 26.3441 121.491 23.9771C120.976 21.5782 121.427 19.3711 122.328 17.1641C123.681 13.8695 127.707 10.8309 131.604 11.0228C131.862 11.0548 132.152 11.0548 132.442 11.0228Z" fill="white"/>
<path d="M182.269 25.896C181.013 25.896 179.789 25.896 178.533 25.896C178.308 25.896 178.05 25.896 177.825 25.928C177.406 25.96 177.245 26.2159 177.309 26.5997C177.535 27.6872 178.211 28.5189 179.177 28.9987C181.046 29.8943 182.881 29.7343 184.621 28.5829C184.846 28.4229 185.104 28.263 185.329 28.135C186.231 27.6872 186.875 27.8792 187.391 28.7108C187.487 28.8707 187.584 29.0307 187.68 29.1906C187.841 29.4785 187.809 29.7343 187.616 29.9902C187.358 30.3741 187.068 30.7899 186.682 31.0778C185.361 32.1013 183.88 32.741 182.205 32.773C181.046 32.805 179.918 32.869 178.791 32.4851C175.828 31.4616 173.895 29.4785 173.316 26.4078C172.961 24.4247 172.961 22.3776 173.928 20.5224C174.99 18.4753 176.504 16.844 178.952 16.3962C179.596 16.2682 180.208 15.9164 180.917 15.9804C183.397 16.2043 185.555 16.9399 187.101 19.083C188.131 20.5224 188.55 22.0577 188.55 23.753C188.582 25.0004 187.906 25.8001 186.553 25.8321C185.168 25.928 183.719 25.896 182.269 25.896ZM180.981 23.2732C181.754 23.2732 182.527 23.2732 183.268 23.2732C183.654 23.2732 184.041 23.2732 184.427 23.2412C184.653 23.2092 184.782 23.0813 184.782 22.8574C184.717 21.1941 183.526 19.8187 182.173 19.4348C179.661 18.6992 177.567 20.3624 177.148 22.6015C177.084 22.9853 177.277 23.2412 177.696 23.2412C178.791 23.2732 179.886 23.2732 180.981 23.2732Z" fill="white"/>
<path d="M157.596 26.4717C157.596 27.7511 157.596 29.0305 157.596 30.342C157.596 30.7898 157.564 31.2056 157.339 31.5894C156.598 32.8369 155.084 32.9648 154.086 31.8773C153.989 31.7813 153.925 31.6534 153.828 31.5574C153.603 31.3016 153.345 31.2696 153.055 31.4295C152.797 31.5574 152.572 31.7174 152.314 31.8773C150.414 33.1567 146.903 33.3487 144.617 31.5255C143.715 30.8218 143.135 29.8622 143.038 28.7427C142.974 28.071 142.974 27.3993 143.038 26.7595C143.296 25.0003 144.391 23.8488 146.034 23.2411C147.612 22.6333 149.255 22.3135 150.962 22.6333C151.606 22.7613 152.282 22.8572 152.958 22.9532C153.506 23.0172 153.828 22.6973 153.699 22.2175C153.377 21.226 152.894 20.4263 151.799 20.0425C150.736 19.6906 149.641 19.6267 148.546 19.8506C148.031 19.9465 147.515 20.0745 147.032 20.2344C146.646 20.3623 146.291 20.3943 145.905 20.3943C145.196 20.4263 144.745 20.0425 144.456 19.4347C144.166 18.795 144.294 18.2513 144.713 17.7075C145.035 17.3237 145.486 17.1317 145.937 17.0038C146.807 16.7799 147.709 16.524 148.61 16.524C149.126 16.524 149.673 16.588 150.156 16.3641C150.253 16.3321 150.35 16.3001 150.446 16.3321C151.219 16.652 152.057 16.492 152.862 16.62C155.149 17.0038 157.017 18.923 157.435 21.162C157.564 21.9616 157.693 22.7613 157.693 23.5609C157.596 24.4885 157.596 25.4801 157.596 26.4717ZM150.672 25.0003C149.673 25.0003 148.707 25.0643 147.773 25.608C146.839 26.1838 146.678 26.9515 146.742 27.911C146.807 28.6147 147.129 29.0945 147.773 29.4784C149.641 30.5659 151.863 29.7342 152.958 28.7427C153.764 28.007 153.925 27.0474 153.764 25.9919C153.731 25.736 153.538 25.608 153.313 25.5121C152.508 25.0963 151.606 25.0643 150.672 25.0003Z" fill="white"/>
<path d="M88.3485 37.347C87.5433 37.4749 86.7381 37.1231 85.9329 36.8992C85.2243 36.7072 84.8701 36.0995 84.709 35.4278C84.548 34.7881 85.2566 33.8605 85.9651 33.7325C86.2872 33.6686 86.6415 33.7325 86.9636 33.7325C87.3823 33.7645 87.8332 33.7645 88.2519 33.8285C89.1215 33.9245 89.7013 33.4767 90.12 32.773C90.3776 32.3891 90.4099 32.0053 90.1844 31.5575C89.4436 29.8622 88.735 28.135 87.962 26.4717C86.867 24.0088 85.7075 21.5459 84.5802 19.083C84.3225 18.5392 84.2903 17.9954 84.5158 17.4197C84.7734 16.8439 85.1921 16.5241 85.8041 16.4281C86.0295 16.3961 86.2872 16.4281 86.5127 16.3961C87.2212 16.3641 87.7044 16.684 87.9942 17.3237C88.3485 18.1554 88.735 18.955 89.0893 19.7866C90.0234 22.0257 90.9252 24.2647 91.827 26.5357C91.9236 26.7596 92.0203 26.9835 92.1491 27.1754C92.2135 27.2714 92.4068 27.3353 92.5034 27.1754C92.6644 26.8875 92.7933 26.5677 92.8899 26.2798C93.8561 23.7849 94.7902 21.322 95.7564 18.8271C95.9497 18.2833 96.1751 17.7715 96.465 17.2597C96.8837 16.4601 98.011 16.1402 98.9772 16.5561C99.6858 16.8439 100.137 17.7395 99.879 18.5712C99.5892 19.5308 99.2027 20.4264 98.8162 21.354C97.5923 24.2327 96.3362 27.1114 95.1445 30.0222C94.6291 31.2696 94.1782 32.5171 93.5985 33.7006C93.3408 34.2123 93.0831 34.7241 92.7611 35.2039C91.6982 36.6753 90.2488 37.4109 88.3485 37.347Z" fill="white"/>
<path d="M107.255 17.9956C107.448 17.8996 107.642 17.8037 107.738 17.7077C108.672 16.7801 109.896 16.4922 111.056 16.1084C111.152 16.0764 111.249 16.0444 111.346 16.0444C113.793 16.1084 116.531 17.036 117.24 20.0107C117.53 21.2262 117.658 22.4416 117.658 23.6571C117.658 25.8002 117.626 27.9432 117.658 30.0863C117.658 30.79 117.497 31.3977 117.046 31.9415C116.402 32.7411 115.146 32.8051 114.373 32.1014C113.89 31.6536 113.665 31.1418 113.665 30.4701C113.697 28.2951 113.665 26.088 113.665 23.913C113.665 23.2093 113.568 22.5056 113.407 21.8019C112.988 20.0747 110.959 19.339 109.51 19.7868C108.286 20.1706 107.384 20.8423 107.158 22.2177C107.062 22.7935 106.997 23.3372 106.997 23.913C106.997 26.088 106.965 28.2951 106.997 30.4701C106.997 31.2698 106.643 31.8455 106.063 32.2933C105.29 32.8691 104.034 32.6452 103.519 31.8455C103.229 31.3977 103.068 30.9179 103.068 30.3742C103.1 26.4079 103.068 22.4736 103.068 18.5074C103.068 18.4114 103.068 18.3154 103.068 18.2195C103.197 17.5158 103.358 16.7481 104.163 16.5242C105.194 16.2683 106.031 16.3003 106.643 17.132C106.836 17.3878 107.03 17.6757 107.255 17.9956Z" fill="white"/>
<path d="M161.654 24.4568C161.654 22.5377 161.654 20.6505 161.654 18.7313C161.654 18.4115 161.654 18.0596 161.686 17.7398C161.782 17.0361 162.33 16.5243 163.039 16.4603C163.361 16.4283 163.715 16.4283 164.037 16.4603C164.552 16.4923 164.939 16.7482 165.164 17.196C165.293 17.4519 165.422 17.7078 165.583 17.9317C165.744 18.1556 166.002 18.1876 166.195 18.0276C166.42 17.8677 166.581 17.6118 166.775 17.3879C167.548 16.5563 168.546 16.2684 169.641 16.3644C170.382 16.4283 170.865 16.7802 171.155 17.4839C171.413 18.1876 171.284 18.7953 170.801 19.3391C170.543 19.6269 170.285 19.8828 169.867 19.9788C169.48 20.0747 169.126 20.2027 168.772 20.2987C167.612 20.6505 166.775 21.4182 166.259 22.5057C165.841 23.3693 165.583 24.2649 165.615 25.2565C165.647 26.7278 165.615 28.1992 165.615 29.6706C165.615 30.4062 165.454 31.0779 165.1 31.7177C164.617 32.5493 163.715 32.6772 162.974 32.5173C162.266 32.3574 161.686 31.6537 161.654 30.854C161.621 30.1503 161.654 29.4147 161.654 28.711C161.654 27.3036 161.654 25.8642 161.654 24.4568Z" fill="white"/>
<path d="M28.1503 15.3088C33.3358 15.3088 38.5214 15.3088 43.6747 15.3088C44.0934 15.3088 44.5443 15.3088 44.963 15.3408C45.2206 15.3728 45.4139 15.5327 45.4139 15.7886C45.4461 16.1085 45.4461 16.4603 45.4461 16.7802C45.4461 23.7212 45.4461 30.6941 45.4461 37.6351C45.4461 38.1149 45.4461 38.5947 45.3495 39.0425C45.1884 39.8741 44.6731 40.2579 43.9001 40.4179C43.578 40.4818 43.2237 40.4818 42.9017 40.4818C32.9816 40.4818 23.0292 40.4818 13.1091 40.4818C12.5938 40.4818 12.0463 40.5138 11.5631 40.2579C11.1122 40.034 10.7901 39.7462 10.6613 39.2024C10.5647 38.7866 10.5325 38.3708 10.5325 37.923C10.5325 30.7901 10.5325 23.6252 10.5325 16.4923C10.5325 16.2684 10.5325 16.0125 10.5647 15.7886C10.5969 15.5327 10.7579 15.3408 11.0156 15.3088C11.4343 15.2769 11.8852 15.2769 12.3039 15.2769C17.6183 15.3088 22.8682 15.3088 28.1503 15.3088ZM27.9571 20.5545C27.9571 20.5865 27.9571 20.5865 27.9571 20.5545C27.3773 20.5545 26.7976 20.5545 26.2178 20.5545C25.6059 20.5865 25.3804 20.8104 25.316 21.4502C25.2838 21.738 25.2838 22.0259 25.2838 22.3138C25.2516 23.1774 25.3804 24.041 25.1872 24.8727C24.3498 25.3844 23.4157 25.0326 22.5139 25.1285C22.224 25.1605 21.9342 25.1286 21.6443 25.1605C20.9679 25.2565 20.5814 25.6083 20.5492 26.28C20.517 27.3356 20.517 28.3911 20.5492 29.4147C20.5492 29.8945 20.8713 30.1823 21.3544 30.3103C21.5477 30.3423 21.7409 30.3743 21.9342 30.3743C22.224 30.3743 22.5139 30.3743 22.8038 30.3743C25.6703 30.4062 25.2516 29.9904 25.2838 32.9012C25.2838 33.189 25.2838 33.4769 25.2838 33.7648C25.2838 33.8927 25.2838 34.0527 25.316 34.1806C25.3804 34.7244 25.6059 34.9483 26.1534 34.9802C27.023 35.0122 27.8927 35.0122 28.7301 34.9802C30.2117 34.9802 30.3727 34.7883 30.4049 33.349C30.4049 32.6453 30.4049 31.9096 30.4049 31.2059C30.4371 30.5342 30.5659 30.4062 31.2745 30.3743C31.8865 30.3423 32.5306 30.3743 33.1426 30.3743C33.4325 30.3743 33.7223 30.3743 34.0122 30.3743C34.6886 30.3103 34.9785 30.0544 35.0107 29.3827C35.0429 28.3272 35.0429 27.2716 35.0107 26.2481C34.9785 25.4484 34.6564 25.1925 33.819 25.1605C33.2392 25.1286 32.6595 25.1605 32.0797 25.1605C31.7576 25.1605 31.4034 25.1605 31.0813 25.1285C30.6304 25.0966 30.4693 24.9366 30.4371 24.5208C30.4049 24.2329 30.4049 23.9451 30.4049 23.6572C30.4049 23.0814 30.4049 22.5057 30.4049 21.9299C30.3727 20.7465 30.1794 20.5545 28.9233 20.5545C28.6335 20.5545 28.2792 20.5545 27.9571 20.5545Z" fill="#329D9A"/>
<path d="M28.022 14.1255C22.7399 14.1255 17.4577 14.1255 12.2078 14.1255C10.4364 14.1255 10.5652 14.1575 10.5652 12.4942C10.5652 11.7266 10.5652 10.9589 10.5652 10.2232C10.5652 9.99934 10.5652 9.74345 10.5652 9.51955C10.694 8.27209 11.2416 7.76032 12.4977 7.69634C12.8198 7.66436 13.174 7.69634 13.4961 7.69634C23.1908 7.69634 32.8854 7.69634 42.5479 7.69634C43.031 7.69634 43.5141 7.69634 43.9972 7.72833C44.6736 7.7923 45.1567 8.17613 45.3178 8.84784C45.35 9.03976 45.4788 9.19969 45.4788 9.3916C45.4788 10.831 45.4788 12.2384 45.4788 13.6777C45.4788 13.9336 45.2534 14.0935 44.9957 14.1255C44.577 14.1575 44.1261 14.1575 43.7074 14.1575C38.4574 14.1255 33.2397 14.1255 28.022 14.1255ZM39.8424 11.4067C39.9068 10.3512 39.0372 9.35962 37.9743 9.29565C36.9759 9.23167 35.9452 10.1593 35.8486 11.1828C35.7842 12.0784 36.686 13.134 37.6844 13.2299C38.7151 13.3579 39.778 12.4623 39.8424 11.4067ZM26.0895 11.2468C26.0573 12.3343 26.9591 13.2299 28.0542 13.2299C29.0527 13.2299 29.9545 12.3023 29.9545 11.3108C29.9545 9.93537 29.1171 9.26366 28.0542 9.32763C26.7981 9.3916 26.0895 9.87139 26.0895 11.2468ZM16.2338 11.3428C16.0728 12.2703 17.3611 13.2619 18.1663 13.2619C19.1326 13.2619 20.0666 12.3343 20.0988 11.3428C20.0988 10.1913 19.2936 9.32763 18.1663 9.32763C17.0712 9.29565 16.2338 10.1913 16.2338 11.3428Z" fill="#329D9A"/>
<path d="M27.9574 20.5547C28.2795 20.5547 28.6338 20.5547 28.9559 20.5547C30.212 20.5867 30.4053 20.7466 30.4375 21.9301C30.4375 22.5058 30.4375 23.0816 30.4375 23.6573C30.4375 23.9452 30.4375 24.2331 30.4697 24.521C30.5019 24.9368 30.6629 25.0967 31.1138 25.1287C31.4359 25.1607 31.7902 25.1607 32.1123 25.1607C32.692 25.1607 33.2718 25.1607 33.8515 25.1607C34.6889 25.1927 35.011 25.4485 35.0432 26.2482C35.0754 27.3037 35.0754 28.3593 35.0432 29.3828C35.011 30.0225 34.7212 30.3104 34.0448 30.3744C33.7549 30.4064 33.465 30.3744 33.1752 30.3744C32.5632 30.3744 31.919 30.3744 31.3071 30.3744C30.5985 30.4064 30.4375 30.5023 30.4375 31.206C30.4053 31.9097 30.4375 32.6454 30.4375 33.3491C30.4053 34.8205 30.2442 34.9804 28.7626 34.9804C27.893 34.9804 27.0234 34.9804 26.186 34.9804C25.6385 34.9484 25.413 34.7245 25.3486 34.1807C25.3164 34.0528 25.3164 33.8929 25.3164 33.7649C25.3164 33.477 25.3164 33.1892 25.3164 32.9013C25.2842 29.9906 25.6707 30.4064 22.8363 30.3744C22.5465 30.3744 22.2566 30.3744 21.9667 30.3744C21.7735 30.3744 21.5802 30.3424 21.387 30.3104C20.9361 30.1825 20.614 29.8946 20.5818 29.4148C20.5496 28.3593 20.5496 27.3037 20.5818 26.2802C20.614 25.6085 20.9683 25.2566 21.6769 25.1607C21.9667 25.1287 22.2566 25.1607 22.5465 25.1287C23.4161 25.0327 24.3501 25.3846 25.2197 24.8728C25.4452 24.0412 25.2842 23.1775 25.3164 22.3139C25.3164 22.026 25.3164 21.7382 25.3486 21.4503C25.413 20.8106 25.6385 20.5867 26.2504 20.5547C26.7979 20.5547 27.3777 20.5867 27.9574 20.5547C27.9574 20.5867 27.9574 20.5867 27.9574 20.5547ZM27.9252 21.8021C27.6354 21.8021 27.3455 21.8021 27.0556 21.8021C26.7335 21.8341 26.5403 21.9941 26.5081 22.3459C26.5081 22.6338 26.5081 22.9217 26.5081 23.2095C26.5081 24.0092 26.5081 24.8408 26.4759 25.6405C26.4437 26.0883 26.2182 26.3442 25.7673 26.4081C25.3808 26.4401 24.9943 26.4401 24.6078 26.4401C23.9314 26.4401 23.2551 26.4401 22.6109 26.4721C22.321 26.4721 21.9989 26.6 21.9345 26.8879C21.8057 27.5276 21.6446 28.2633 21.9989 28.8391C22.2888 29.3508 22.9652 29.063 23.4805 29.1269C23.6738 29.1589 23.867 29.1269 24.0603 29.1269C24.64 29.1269 25.2197 29.1269 25.7673 29.1909C26.2182 29.2229 26.4437 29.4788 26.4759 29.9586C26.5081 30.6303 26.4759 31.302 26.5081 31.9417C26.5081 32.3575 26.5081 32.8053 26.5403 33.2212C26.5725 33.637 26.7657 33.7969 27.1844 33.8289C27.3133 33.8609 27.4743 33.8289 27.6032 33.8609C29.0847 33.8929 29.1169 33.8609 29.1491 32.3895C29.1491 31.5899 29.1491 30.7582 29.1814 29.9586C29.2136 29.4148 29.439 29.1909 29.9866 29.1589C30.6629 29.1269 31.3393 29.1269 31.9835 29.1269C33.9159 29.1269 33.8193 29.2549 33.7549 27.2078C33.7227 26.664 33.5295 26.5041 32.9175 26.4721C32.2089 26.4401 31.4681 26.4721 30.7595 26.4721C29.1813 26.4721 29.1813 26.4721 29.1491 24.8728C29.1491 24.0731 29.1491 23.2415 29.1491 22.4419C29.1491 22.026 28.9559 21.8661 28.505 21.8341C28.3117 21.8021 28.1185 21.8021 27.9252 21.8021Z" fill="white"/>
<path d="M39.8427 11.4068C39.7783 12.4623 38.7476 13.3579 37.6848 13.23C36.7185 13.134 35.7845 12.0785 35.8489 11.1829C35.9455 10.1273 36.9762 9.23174 37.9747 9.29571C39.0053 9.35968 39.9071 10.3512 39.8427 11.4068ZM37.878 10.5112C37.5237 10.4792 37.1372 10.7991 37.105 11.1829C37.0728 11.5667 37.3627 11.8866 37.8136 11.9186C38.2323 11.9505 38.6188 11.6307 38.6188 11.2788C38.5866 10.927 38.2323 10.5432 37.878 10.5112Z" fill="white"/>
<path d="M26.0886 11.2466C26.0886 9.87118 26.8294 9.39139 28.0533 9.32742C29.1162 9.26344 29.9536 9.93515 29.9536 11.3106C29.9536 12.3021 29.0195 13.2297 28.0533 13.2297C26.9582 13.2617 26.0564 12.3661 26.0886 11.2466ZM28.8263 11.3425C28.8585 10.8947 28.5042 10.5429 28.0211 10.5109C27.6346 10.5109 27.2481 10.8308 27.2159 11.1826C27.2159 11.6304 27.5702 11.9823 28.0211 12.0142C28.4398 12.0142 28.7941 11.7264 28.8263 11.3425Z" fill="white"/>
<path d="M16.2344 11.3425C16.2344 10.191 17.0718 9.3274 18.1668 9.29541C19.2941 9.29541 20.0993 10.127 20.0993 11.3105C20.0993 12.3021 19.1331 13.2297 18.1668 13.2297C17.3616 13.2297 16.0733 12.2701 16.2344 11.3425ZM18.9398 11.2146C18.9076 10.8307 18.5533 10.5109 18.1991 10.5429C17.7481 10.5749 17.3616 10.9587 17.3938 11.3425C17.4261 11.7263 17.8448 12.0462 18.2957 12.0142C18.6822 11.9502 18.9398 11.5984 18.9398 11.2146Z" fill="white"/>
<path d="M27.9251 21.802C28.1184 21.802 28.3116 21.802 28.5049 21.802C28.9558 21.834 29.1168 21.9619 29.149 22.4097C29.1812 23.2094 29.149 24.041 29.149 24.8407C29.149 26.408 29.149 26.44 30.7594 26.44C31.468 26.44 32.2088 26.44 32.9174 26.44C33.5293 26.472 33.7548 26.6319 33.7548 27.1757C33.8192 29.2228 33.9158 29.0948 31.9833 29.0948C31.307 29.0948 30.6306 29.0948 29.9864 29.1268C29.4389 29.1588 29.2134 29.3827 29.1812 29.9265C29.149 30.7261 29.1812 31.5577 29.149 32.3574C29.149 33.8288 29.0846 33.8927 27.603 33.8288C27.4742 33.8288 27.3132 33.8288 27.1843 33.7968C26.7656 33.7328 26.5724 33.5729 26.5402 33.189C26.508 32.7732 26.508 32.3254 26.508 31.9096C26.508 31.2379 26.508 30.5662 26.4758 29.9265C26.4435 29.4787 26.2181 29.2228 25.7672 29.1588C25.1874 29.0948 24.6077 29.1268 24.0601 29.0948C23.8669 29.0948 23.6736 29.1268 23.4804 29.0948C22.9651 29.0308 22.3209 29.3187 21.9988 28.8069C21.6445 28.2312 21.8056 27.4955 21.9344 26.8558C21.9988 26.5359 22.2887 26.44 22.6108 26.44C23.2871 26.408 23.9635 26.44 24.6077 26.408C24.9942 26.408 25.3807 26.408 25.7672 26.376C26.2181 26.344 26.4435 26.0881 26.4758 25.6083C26.508 24.8087 26.508 23.9771 26.508 23.1774C26.508 22.8895 26.508 22.6017 26.508 22.3138C26.508 21.9619 26.7012 21.802 27.0555 21.77C27.3454 21.802 27.6352 21.802 27.9251 21.802Z" fill="#329D9A"/>
<path d="M37.8782 10.5107C38.2325 10.5427 38.5868 10.9266 38.5868 11.2784C38.5868 11.6303 38.2325 11.9501 37.7816 11.9181C37.3629 11.8861 37.0408 11.5663 37.073 11.1824C37.1374 10.8306 37.5239 10.5107 37.8782 10.5107Z" fill="#F7FBFB"/>
<path d="M28.8287 11.3424C28.7965 11.6942 28.4422 12.0141 28.0235 12.0141C27.5726 12.0141 27.2183 11.6622 27.2183 11.1824C27.2183 10.8306 27.6048 10.5107 28.0235 10.5107C28.5066 10.5427 28.8609 10.9266 28.8287 11.3424Z" fill="#F7FBFB"/>
<path d="M18.9392 11.2144C18.9714 11.6303 18.6815 11.9821 18.3272 12.0141C17.8763 12.0461 17.4576 11.7582 17.4254 11.3424C17.3932 10.9586 17.7475 10.5747 18.2306 10.5427C18.5527 10.5108 18.9069 10.8306 18.9392 11.2144Z" fill="#F7FBFB"/>
</svg>
