<svg width="20" height="21" viewBox="0 0 20 21" fill="none" xmlns="http://www.w3.org/2000/svg">
<path d="M18.1398 6.16835C18.1365 6.16835 18.1333 6.16835 18.13 6.16835H14.1414V2.16995C14.1468 1.36353 13.4974 0.705341 12.691 0.699951C12.6877 0.699951 12.6844 0.699951 12.6812 0.699951H6.9188C6.11238 0.699951 5.4586 1.35373 5.4586 2.16015V6.15855H1.47C0.663583 6.15316 0.00539 6.80241 0 7.60883C0 7.61544 0 7.62194 0 7.62855V13.3812C0 14.1876 0.653782 14.8414 1.4602 14.8414H5.4586V18.83C5.45321 19.6364 6.10258 20.2946 6.909 20.3C6.91231 20.3 6.91562 20.3 6.9188 20.3H12.6714C13.4778 20.3 14.1316 19.6462 14.1316 18.8398V14.8414H18.13C18.9364 14.8467 19.5946 14.1974 19.6 13.391C19.6 13.3876 19.6 13.3843 19.6 13.3812V7.62855C19.6 6.82213 18.9463 6.16835 18.1398 6.16835ZM17.64 12.8814H13.1614C12.6202 12.8814 12.1814 13.3201 12.1814 13.8614V18.34H7.4186V13.8614C7.4186 13.3201 6.97981 12.8814 6.4386 12.8814H1.96V8.12835H6.4386C6.97981 8.12835 7.4186 7.68956 7.4186 7.14835V2.65995H12.1716V7.13855C12.1716 7.67976 12.6104 8.11855 13.1516 8.11855H17.64V12.8814Z" fill="white"/>
</svg>
